<?xml version="1.0" encoding="UTF-8"?>
<svg version="1.1" xmlns="http://www.w3.org/2000/svg" width="16" height="15">
<path d="M0 0 C5.28 0 10.56 0 16 0 C16 4.95 16 9.9 16 15 C10.72 15 5.44 15 0 15 C0 10.05 0 5.1 0 0 Z " fill="#170D11" transform="translate(0,0)"/>
<path d="M0 0 C5.28 0 10.56 0 16 0 C16 2.97 16 5.94 16 9 C14.02 9.99 14.02 9.99 12 11 C12.33 10.01 12.66 9.02 13 8 C11.35 8.66 9.7 9.32 8 10 C7.67 8.68 7.34 7.36 7 6 C10.13349732 4.95550089 10.98968256 5.06576355 14 6 C14 5.34 14 4.68 14 4 C11.69 3.67 9.38 3.34 7 3 C7 3.66 7 4.32 7 5 C5 6.625 5 6.625 3 8 C3.99 9.485 3.99 9.485 5 11 C2.525 10.01 2.525 10.01 0 9 C0 6.03 0 3.06 0 0 Z " fill="#27171B" transform="translate(0,0)"/>
<path d="M0 0 C1.0725 0.37125 2.145 0.7425 3.25 1.125 C6.81629347 2.31491732 6.81629347 2.31491732 9.4375 1.125 C9.953125 0.75375 10.46875 0.3825 11 0 C11.33 0.66 11.66 1.32 12 2 C13.32 1.34 14.64 0.68 16 0 C16 1.32 16 2.64 16 4 C10.72 4 5.44 4 0 4 C0 2.68 0 1.36 0 0 Z " fill="#0B0506" transform="translate(0,11)"/>
</svg>
